<mxfile host="app.diagrams.net" modified="2024-05-14T10:54:56.687Z" agent="Mozilla/5.0 (X11; Linux x86_64) AppleWebKit/537.36 (KHTML, like Gecko) Chrome/123.0.0.0 Safari/537.36" etag="zLPhkfT8bwqhHcQv3j2o" version="24.4.0" type="device">
  <diagram name="Page-1" id="GfWbMlPon2ddOxIoye8r">
    <mxGraphModel dx="1118" dy="1025" grid="1" gridSize="10" guides="1" tooltips="1" connect="1" arrows="1" fold="1" page="0" pageScale="1" pageWidth="850" pageHeight="1100" math="0" shadow="0">
      <root>
        <mxCell id="0" />
        <mxCell id="1" parent="0" />
        <mxCell id="-h3KbHeJ2DN9P56-N0Ar-150" value="AZ eu-central-1a" style="sketch=0;outlineConnect=0;gradientColor=none;html=1;whiteSpace=wrap;fontSize=12;fontStyle=0;shape=mxgraph.aws4.group;grIcon=mxgraph.aws4.group_availability_zone;strokeColor=#545B64;fillColor=none;verticalAlign=top;align=left;spacingLeft=30;fontColor=#545B64;dashed=1;" parent="1" vertex="1">
          <mxGeometry x="160" y="1730" width="160" height="400" as="geometry" />
        </mxCell>
        <mxCell id="-h3KbHeJ2DN9P56-N0Ar-64" value="VPC" style="outlineConnect=0;gradientColor=none;html=1;whiteSpace=wrap;fontSize=12;fontStyle=0;shape=mxgraph.aws4.group;grIcon=mxgraph.aws4.group_vpc;strokeColor=#879196;fillColor=none;verticalAlign=top;align=left;spacingLeft=30;fontColor=#879196;dashed=0;" parent="1" vertex="1">
          <mxGeometry x="120" y="1690" width="640" height="470" as="geometry" />
        </mxCell>
        <mxCell id="-h3KbHeJ2DN9P56-N0Ar-68" value="Public Subnet" style="outlineConnect=0;html=1;whiteSpace=wrap;fontSize=12;fontStyle=0;shape=mxgraph.aws4.group;grIcon=mxgraph.aws4.group_subnet;strokeColor=#82b366;fillColor=#d5e8d4;verticalAlign=top;align=left;spacingLeft=30;dashed=0;" parent="1" vertex="1">
          <mxGeometry x="180" y="1770" width="120" height="140" as="geometry" />
        </mxCell>
        <mxCell id="-h3KbHeJ2DN9P56-N0Ar-69" value="Public Subnet" style="outlineConnect=0;html=1;whiteSpace=wrap;fontSize=12;fontStyle=0;shape=mxgraph.aws4.group;grIcon=mxgraph.aws4.group_subnet;strokeColor=#82b366;fillColor=#d5e8d4;verticalAlign=top;align=left;spacingLeft=30;dashed=0;" parent="1" vertex="1">
          <mxGeometry x="380" y="1770" width="120" height="140" as="geometry" />
        </mxCell>
        <mxCell id="-h3KbHeJ2DN9P56-N0Ar-70" value="Public Subnet" style="outlineConnect=0;html=1;whiteSpace=wrap;fontSize=12;fontStyle=0;shape=mxgraph.aws4.group;grIcon=mxgraph.aws4.group_subnet;strokeColor=#82b366;fillColor=#d5e8d4;verticalAlign=top;align=left;spacingLeft=30;dashed=0;" parent="1" vertex="1">
          <mxGeometry x="580" y="1770" width="120" height="140" as="geometry" />
        </mxCell>
        <mxCell id="-h3KbHeJ2DN9P56-N0Ar-71" value="10.0.0.0/16" style="text;html=1;align=center;verticalAlign=middle;whiteSpace=wrap;rounded=0;" parent="1" vertex="1">
          <mxGeometry x="200" y="1690" width="60" height="30" as="geometry" />
        </mxCell>
        <mxCell id="-h3KbHeJ2DN9P56-N0Ar-72" value="10.0.5.0/24" style="text;html=1;align=center;verticalAlign=middle;whiteSpace=wrap;rounded=0;" parent="1" vertex="1">
          <mxGeometry x="210" y="1790" width="60" height="30" as="geometry" />
        </mxCell>
        <mxCell id="-h3KbHeJ2DN9P56-N0Ar-73" value="10.0.6.0/24" style="text;html=1;align=center;verticalAlign=middle;whiteSpace=wrap;rounded=0;" parent="1" vertex="1">
          <mxGeometry x="410" y="1790" width="60" height="30" as="geometry" />
        </mxCell>
        <mxCell id="-h3KbHeJ2DN9P56-N0Ar-74" value="10.0.7.0/24" style="text;html=1;align=center;verticalAlign=middle;whiteSpace=wrap;rounded=0;" parent="1" vertex="1">
          <mxGeometry x="610" y="1790" width="60" height="30" as="geometry" />
        </mxCell>
        <mxCell id="-h3KbHeJ2DN9P56-N0Ar-75" value="" style="outlineConnect=0;dashed=0;verticalLabelPosition=bottom;verticalAlign=top;align=center;html=1;shape=mxgraph.aws3.internet_gateway;fillColor=#F58534;gradientColor=none;" parent="1" vertex="1">
          <mxGeometry x="417" y="1670" width="46" height="48" as="geometry" />
        </mxCell>
        <mxCell id="-h3KbHeJ2DN9P56-N0Ar-76" value="Internet Gateway" style="text;html=1;align=center;verticalAlign=middle;whiteSpace=wrap;rounded=0;" parent="1" vertex="1">
          <mxGeometry x="410" y="1640" width="60" height="30" as="geometry" />
        </mxCell>
        <mxCell id="-h3KbHeJ2DN9P56-N0Ar-83" value="Private Subnet" style="outlineConnect=0;html=1;whiteSpace=wrap;fontSize=12;fontStyle=0;shape=mxgraph.aws4.group;grIcon=mxgraph.aws4.group_subnet;strokeColor=#d79b00;fillColor=#ffe6cc;verticalAlign=top;align=left;spacingLeft=30;dashed=0;" parent="1" vertex="1">
          <mxGeometry x="180" y="1960" width="120" height="140" as="geometry" />
        </mxCell>
        <mxCell id="-h3KbHeJ2DN9P56-N0Ar-84" value="Private Subnet" style="outlineConnect=0;html=1;whiteSpace=wrap;fontSize=12;fontStyle=0;shape=mxgraph.aws4.group;grIcon=mxgraph.aws4.group_subnet;strokeColor=#d79b00;fillColor=#ffe6cc;verticalAlign=top;align=left;spacingLeft=30;dashed=0;" parent="1" vertex="1">
          <mxGeometry x="380" y="1960" width="120" height="140" as="geometry" />
        </mxCell>
        <mxCell id="-h3KbHeJ2DN9P56-N0Ar-85" value="Private Subnet" style="outlineConnect=0;html=1;whiteSpace=wrap;fontSize=12;fontStyle=0;shape=mxgraph.aws4.group;grIcon=mxgraph.aws4.group_subnet;strokeColor=#d79b00;fillColor=#ffe6cc;verticalAlign=top;align=left;spacingLeft=30;dashed=0;" parent="1" vertex="1">
          <mxGeometry x="580" y="1960" width="120" height="140" as="geometry" />
        </mxCell>
        <mxCell id="-h3KbHeJ2DN9P56-N0Ar-86" value="10.0.10.0/24" style="text;html=1;align=center;verticalAlign=middle;whiteSpace=wrap;rounded=0;" parent="1" vertex="1">
          <mxGeometry x="210" y="2000" width="60" height="30" as="geometry" />
        </mxCell>
        <mxCell id="-h3KbHeJ2DN9P56-N0Ar-91" value="Region: eu-central-1" style="sketch=0;outlineConnect=0;gradientColor=none;html=1;whiteSpace=wrap;fontSize=12;fontStyle=0;shape=mxgraph.aws4.group;grIcon=mxgraph.aws4.group_region;strokeColor=#879196;fillColor=none;verticalAlign=top;align=left;spacingLeft=30;fontColor=#879196;dashed=1;" parent="1" vertex="1">
          <mxGeometry x="90" y="-360" width="700" height="320" as="geometry" />
        </mxCell>
        <mxCell id="-h3KbHeJ2DN9P56-N0Ar-92" value="AZ eu-central-1a" style="sketch=0;outlineConnect=0;gradientColor=none;html=1;whiteSpace=wrap;fontSize=12;fontStyle=0;shape=mxgraph.aws4.group;grIcon=mxgraph.aws4.group_availability_zone;strokeColor=#545B64;fillColor=none;verticalAlign=top;align=left;spacingLeft=30;fontColor=#545B64;dashed=1;" parent="1" vertex="1">
          <mxGeometry x="160" y="-320" width="160" height="190" as="geometry" />
        </mxCell>
        <mxCell id="-h3KbHeJ2DN9P56-N0Ar-93" value="AZ eu-central-1b" style="sketch=0;outlineConnect=0;gradientColor=none;html=1;whiteSpace=wrap;fontSize=12;fontStyle=0;shape=mxgraph.aws4.group;grIcon=mxgraph.aws4.group_availability_zone;strokeColor=#545B64;fillColor=none;verticalAlign=top;align=left;spacingLeft=30;fontColor=#545B64;dashed=1;" parent="1" vertex="1">
          <mxGeometry x="360" y="-320" width="160" height="190" as="geometry" />
        </mxCell>
        <mxCell id="-h3KbHeJ2DN9P56-N0Ar-94" value="AZ eu-central-1c" style="sketch=0;outlineConnect=0;gradientColor=none;html=1;whiteSpace=wrap;fontSize=12;fontStyle=0;shape=mxgraph.aws4.group;grIcon=mxgraph.aws4.group_availability_zone;strokeColor=#545B64;fillColor=none;verticalAlign=top;align=left;spacingLeft=30;fontColor=#545B64;dashed=1;" parent="1" vertex="1">
          <mxGeometry x="560" y="-320" width="160" height="190" as="geometry" />
        </mxCell>
        <mxCell id="-h3KbHeJ2DN9P56-N0Ar-111" value="" style="group" parent="1" vertex="1" connectable="0">
          <mxGeometry x="79.99999999999994" y="340" width="700" height="390" as="geometry" />
        </mxCell>
        <mxCell id="-h3KbHeJ2DN9P56-N0Ar-95" value="Region: eu-central-1" style="sketch=0;outlineConnect=0;gradientColor=none;html=1;whiteSpace=wrap;fontSize=12;fontStyle=0;shape=mxgraph.aws4.group;grIcon=mxgraph.aws4.group_region;strokeColor=#879196;fillColor=none;verticalAlign=top;align=left;spacingLeft=30;fontColor=#879196;dashed=1;" parent="-h3KbHeJ2DN9P56-N0Ar-111" vertex="1">
          <mxGeometry y="60" width="700" height="330" as="geometry" />
        </mxCell>
        <mxCell id="-h3KbHeJ2DN9P56-N0Ar-96" value="VPC" style="sketch=0;outlineConnect=0;gradientColor=none;html=1;whiteSpace=wrap;fontSize=12;fontStyle=0;shape=mxgraph.aws4.group;grIcon=mxgraph.aws4.group_vpc;strokeColor=#879196;fillColor=none;verticalAlign=top;align=left;spacingLeft=30;fontColor=#879196;dashed=0;" parent="-h3KbHeJ2DN9P56-N0Ar-111" vertex="1">
          <mxGeometry x="30" y="90" width="640" height="270" as="geometry" />
        </mxCell>
        <mxCell id="-h3KbHeJ2DN9P56-N0Ar-97" value="Subnet" style="sketch=0;outlineConnect=0;gradientColor=none;html=1;whiteSpace=wrap;fontSize=12;fontStyle=0;shape=mxgraph.aws4.group;grIcon=mxgraph.aws4.group_subnet;strokeColor=#879196;fillColor=none;verticalAlign=top;align=left;spacingLeft=30;fontColor=#879196;dashed=0;" parent="-h3KbHeJ2DN9P56-N0Ar-111" vertex="1">
          <mxGeometry x="90" y="170" width="120" height="140" as="geometry" />
        </mxCell>
        <mxCell id="-h3KbHeJ2DN9P56-N0Ar-98" value="Subnet" style="sketch=0;outlineConnect=0;gradientColor=none;html=1;whiteSpace=wrap;fontSize=12;fontStyle=0;shape=mxgraph.aws4.group;grIcon=mxgraph.aws4.group_subnet;strokeColor=#879196;fillColor=none;verticalAlign=top;align=left;spacingLeft=30;fontColor=#879196;dashed=0;" parent="-h3KbHeJ2DN9P56-N0Ar-111" vertex="1">
          <mxGeometry x="290" y="170" width="120" height="140" as="geometry" />
        </mxCell>
        <mxCell id="-h3KbHeJ2DN9P56-N0Ar-99" value="Subnet" style="sketch=0;outlineConnect=0;gradientColor=none;html=1;whiteSpace=wrap;fontSize=12;fontStyle=0;shape=mxgraph.aws4.group;grIcon=mxgraph.aws4.group_subnet;strokeColor=#879196;fillColor=none;verticalAlign=top;align=left;spacingLeft=30;fontColor=#879196;dashed=0;" parent="-h3KbHeJ2DN9P56-N0Ar-111" vertex="1">
          <mxGeometry x="490" y="170" width="120" height="140" as="geometry" />
        </mxCell>
        <mxCell id="-h3KbHeJ2DN9P56-N0Ar-100" value="10.0.0.0/16" style="text;html=1;align=center;verticalAlign=middle;whiteSpace=wrap;rounded=0;" parent="-h3KbHeJ2DN9P56-N0Ar-111" vertex="1">
          <mxGeometry x="110" y="90" width="60" height="30" as="geometry" />
        </mxCell>
        <mxCell id="-h3KbHeJ2DN9P56-N0Ar-101" value="10.0.5.0/24" style="text;html=1;align=center;verticalAlign=middle;whiteSpace=wrap;rounded=0;" parent="-h3KbHeJ2DN9P56-N0Ar-111" vertex="1">
          <mxGeometry x="120" y="190" width="60" height="30" as="geometry" />
        </mxCell>
        <mxCell id="-h3KbHeJ2DN9P56-N0Ar-102" value="10.0.6.0/24" style="text;html=1;align=center;verticalAlign=middle;whiteSpace=wrap;rounded=0;" parent="-h3KbHeJ2DN9P56-N0Ar-111" vertex="1">
          <mxGeometry x="320" y="190" width="60" height="30" as="geometry" />
        </mxCell>
        <mxCell id="-h3KbHeJ2DN9P56-N0Ar-103" value="10.0.7.0/24" style="text;html=1;align=center;verticalAlign=middle;whiteSpace=wrap;rounded=0;" parent="-h3KbHeJ2DN9P56-N0Ar-111" vertex="1">
          <mxGeometry x="520" y="190" width="60" height="30" as="geometry" />
        </mxCell>
        <mxCell id="-h3KbHeJ2DN9P56-N0Ar-104" value="AZ eu-central-1a" style="sketch=0;outlineConnect=0;gradientColor=none;html=1;whiteSpace=wrap;fontSize=12;fontStyle=0;shape=mxgraph.aws4.group;grIcon=mxgraph.aws4.group_availability_zone;strokeColor=#545B64;fillColor=none;verticalAlign=top;align=left;spacingLeft=30;fontColor=#545B64;dashed=1;" parent="-h3KbHeJ2DN9P56-N0Ar-111" vertex="1">
          <mxGeometry x="70" y="130" width="160" height="190" as="geometry" />
        </mxCell>
        <mxCell id="-h3KbHeJ2DN9P56-N0Ar-105" value="AZ eu-central-1b" style="sketch=0;outlineConnect=0;gradientColor=none;html=1;whiteSpace=wrap;fontSize=12;fontStyle=0;shape=mxgraph.aws4.group;grIcon=mxgraph.aws4.group_availability_zone;strokeColor=#545B64;fillColor=none;verticalAlign=top;align=left;spacingLeft=30;fontColor=#545B64;dashed=1;" parent="-h3KbHeJ2DN9P56-N0Ar-111" vertex="1">
          <mxGeometry x="270" y="130" width="160" height="190" as="geometry" />
        </mxCell>
        <mxCell id="-h3KbHeJ2DN9P56-N0Ar-106" value="AZ eu-central-1b" style="sketch=0;outlineConnect=0;gradientColor=none;html=1;whiteSpace=wrap;fontSize=12;fontStyle=0;shape=mxgraph.aws4.group;grIcon=mxgraph.aws4.group_availability_zone;strokeColor=#545B64;fillColor=none;verticalAlign=top;align=left;spacingLeft=30;fontColor=#545B64;dashed=1;" parent="-h3KbHeJ2DN9P56-N0Ar-111" vertex="1">
          <mxGeometry x="470" y="130" width="160" height="190" as="geometry" />
        </mxCell>
        <mxCell id="-h3KbHeJ2DN9P56-N0Ar-109" value="" style="outlineConnect=0;dashed=0;verticalLabelPosition=bottom;verticalAlign=top;align=center;html=1;shape=mxgraph.aws3.internet_gateway;fillColor=#F58534;gradientColor=none;" parent="-h3KbHeJ2DN9P56-N0Ar-111" vertex="1">
          <mxGeometry x="327" y="30" width="46" height="48" as="geometry" />
        </mxCell>
        <mxCell id="-h3KbHeJ2DN9P56-N0Ar-110" value="Internet Gateway" style="text;html=1;align=center;verticalAlign=middle;whiteSpace=wrap;rounded=0;" parent="-h3KbHeJ2DN9P56-N0Ar-111" vertex="1">
          <mxGeometry x="320" width="60" height="30" as="geometry" />
        </mxCell>
        <mxCell id="-h3KbHeJ2DN9P56-N0Ar-113" value="" style="group" parent="1" vertex="1" connectable="0">
          <mxGeometry x="90" y="10" width="700" height="330" as="geometry" />
        </mxCell>
        <mxCell id="-h3KbHeJ2DN9P56-N0Ar-3" value="Region: eu-central-1" style="sketch=0;outlineConnect=0;gradientColor=none;html=1;whiteSpace=wrap;fontSize=12;fontStyle=0;shape=mxgraph.aws4.group;grIcon=mxgraph.aws4.group_region;strokeColor=#879196;fillColor=none;verticalAlign=top;align=left;spacingLeft=30;fontColor=#879196;dashed=1;" parent="-h3KbHeJ2DN9P56-N0Ar-113" vertex="1">
          <mxGeometry width="700" height="330" as="geometry" />
        </mxCell>
        <mxCell id="-h3KbHeJ2DN9P56-N0Ar-1" value="VPC" style="sketch=0;outlineConnect=0;gradientColor=none;html=1;whiteSpace=wrap;fontSize=12;fontStyle=0;shape=mxgraph.aws4.group;grIcon=mxgraph.aws4.group_vpc;strokeColor=#879196;fillColor=none;verticalAlign=top;align=left;spacingLeft=30;fontColor=#879196;dashed=0;" parent="-h3KbHeJ2DN9P56-N0Ar-113" vertex="1">
          <mxGeometry x="30" y="30" width="640" height="270" as="geometry" />
        </mxCell>
        <mxCell id="-h3KbHeJ2DN9P56-N0Ar-8" value="Subnet" style="sketch=0;outlineConnect=0;gradientColor=none;html=1;whiteSpace=wrap;fontSize=12;fontStyle=0;shape=mxgraph.aws4.group;grIcon=mxgraph.aws4.group_subnet;strokeColor=#879196;fillColor=none;verticalAlign=top;align=left;spacingLeft=30;fontColor=#879196;dashed=0;" parent="-h3KbHeJ2DN9P56-N0Ar-113" vertex="1">
          <mxGeometry x="90" y="110" width="120" height="140" as="geometry" />
        </mxCell>
        <mxCell id="-h3KbHeJ2DN9P56-N0Ar-9" value="Subnet" style="sketch=0;outlineConnect=0;gradientColor=none;html=1;whiteSpace=wrap;fontSize=12;fontStyle=0;shape=mxgraph.aws4.group;grIcon=mxgraph.aws4.group_subnet;strokeColor=#879196;fillColor=none;verticalAlign=top;align=left;spacingLeft=30;fontColor=#879196;dashed=0;" parent="-h3KbHeJ2DN9P56-N0Ar-113" vertex="1">
          <mxGeometry x="290" y="110" width="120" height="140" as="geometry" />
        </mxCell>
        <mxCell id="-h3KbHeJ2DN9P56-N0Ar-10" value="Subnet" style="sketch=0;outlineConnect=0;gradientColor=none;html=1;whiteSpace=wrap;fontSize=12;fontStyle=0;shape=mxgraph.aws4.group;grIcon=mxgraph.aws4.group_subnet;strokeColor=#879196;fillColor=none;verticalAlign=top;align=left;spacingLeft=30;fontColor=#879196;dashed=0;" parent="-h3KbHeJ2DN9P56-N0Ar-113" vertex="1">
          <mxGeometry x="490" y="110" width="120" height="140" as="geometry" />
        </mxCell>
        <mxCell id="-h3KbHeJ2DN9P56-N0Ar-11" value="10.0.0.0/16" style="text;html=1;align=center;verticalAlign=middle;whiteSpace=wrap;rounded=0;" parent="-h3KbHeJ2DN9P56-N0Ar-113" vertex="1">
          <mxGeometry x="110" y="30" width="60" height="30" as="geometry" />
        </mxCell>
        <mxCell id="-h3KbHeJ2DN9P56-N0Ar-12" value="10.0.5.0/24" style="text;html=1;align=center;verticalAlign=middle;whiteSpace=wrap;rounded=0;" parent="-h3KbHeJ2DN9P56-N0Ar-113" vertex="1">
          <mxGeometry x="120" y="130" width="60" height="30" as="geometry" />
        </mxCell>
        <mxCell id="-h3KbHeJ2DN9P56-N0Ar-13" value="10.0.6.0/24" style="text;html=1;align=center;verticalAlign=middle;whiteSpace=wrap;rounded=0;" parent="-h3KbHeJ2DN9P56-N0Ar-113" vertex="1">
          <mxGeometry x="320" y="130" width="60" height="30" as="geometry" />
        </mxCell>
        <mxCell id="-h3KbHeJ2DN9P56-N0Ar-14" value="10.0.7.0/24" style="text;html=1;align=center;verticalAlign=middle;whiteSpace=wrap;rounded=0;" parent="-h3KbHeJ2DN9P56-N0Ar-113" vertex="1">
          <mxGeometry x="520" y="130" width="60" height="30" as="geometry" />
        </mxCell>
        <mxCell id="-h3KbHeJ2DN9P56-N0Ar-88" value="AZ eu-central-1a" style="sketch=0;outlineConnect=0;gradientColor=none;html=1;whiteSpace=wrap;fontSize=12;fontStyle=0;shape=mxgraph.aws4.group;grIcon=mxgraph.aws4.group_availability_zone;strokeColor=#545B64;fillColor=none;verticalAlign=top;align=left;spacingLeft=30;fontColor=#545B64;dashed=1;" parent="-h3KbHeJ2DN9P56-N0Ar-113" vertex="1">
          <mxGeometry x="70" y="70" width="160" height="190" as="geometry" />
        </mxCell>
        <mxCell id="-h3KbHeJ2DN9P56-N0Ar-89" value="AZ eu-central-1b" style="sketch=0;outlineConnect=0;gradientColor=none;html=1;whiteSpace=wrap;fontSize=12;fontStyle=0;shape=mxgraph.aws4.group;grIcon=mxgraph.aws4.group_availability_zone;strokeColor=#545B64;fillColor=none;verticalAlign=top;align=left;spacingLeft=30;fontColor=#545B64;dashed=1;" parent="-h3KbHeJ2DN9P56-N0Ar-113" vertex="1">
          <mxGeometry x="270" y="70" width="160" height="190" as="geometry" />
        </mxCell>
        <mxCell id="-h3KbHeJ2DN9P56-N0Ar-90" value="AZ eu-central-1c" style="sketch=0;outlineConnect=0;gradientColor=none;html=1;whiteSpace=wrap;fontSize=12;fontStyle=0;shape=mxgraph.aws4.group;grIcon=mxgraph.aws4.group_availability_zone;strokeColor=#545B64;fillColor=none;verticalAlign=top;align=left;spacingLeft=30;fontColor=#545B64;dashed=1;" parent="-h3KbHeJ2DN9P56-N0Ar-113" vertex="1">
          <mxGeometry x="470" y="70" width="160" height="190" as="geometry" />
        </mxCell>
        <mxCell id="-h3KbHeJ2DN9P56-N0Ar-131" value="" style="group" parent="1" vertex="1" connectable="0">
          <mxGeometry x="79.99999999999994" y="760" width="700" height="390" as="geometry" />
        </mxCell>
        <mxCell id="-h3KbHeJ2DN9P56-N0Ar-114" value="" style="group" parent="-h3KbHeJ2DN9P56-N0Ar-131" vertex="1" connectable="0">
          <mxGeometry width="700" height="390" as="geometry" />
        </mxCell>
        <mxCell id="-h3KbHeJ2DN9P56-N0Ar-115" value="Region: eu-central-1" style="sketch=0;outlineConnect=0;gradientColor=none;html=1;whiteSpace=wrap;fontSize=12;fontStyle=0;shape=mxgraph.aws4.group;grIcon=mxgraph.aws4.group_region;strokeColor=#879196;fillColor=none;verticalAlign=top;align=left;spacingLeft=30;fontColor=#879196;dashed=1;" parent="-h3KbHeJ2DN9P56-N0Ar-114" vertex="1">
          <mxGeometry y="60" width="700" height="330" as="geometry" />
        </mxCell>
        <mxCell id="-h3KbHeJ2DN9P56-N0Ar-116" value="VPC" style="sketch=0;outlineConnect=0;gradientColor=none;html=1;whiteSpace=wrap;fontSize=12;fontStyle=0;shape=mxgraph.aws4.group;grIcon=mxgraph.aws4.group_vpc;strokeColor=#879196;fillColor=none;verticalAlign=top;align=left;spacingLeft=30;fontColor=#879196;dashed=0;" parent="-h3KbHeJ2DN9P56-N0Ar-114" vertex="1">
          <mxGeometry x="30" y="90" width="640" height="270" as="geometry" />
        </mxCell>
        <mxCell id="-h3KbHeJ2DN9P56-N0Ar-117" value="Subnet" style="sketch=0;outlineConnect=0;gradientColor=none;html=1;whiteSpace=wrap;fontSize=12;fontStyle=0;shape=mxgraph.aws4.group;grIcon=mxgraph.aws4.group_subnet;strokeColor=#879196;fillColor=none;verticalAlign=top;align=left;spacingLeft=30;fontColor=#879196;dashed=0;" parent="-h3KbHeJ2DN9P56-N0Ar-114" vertex="1">
          <mxGeometry x="90" y="170" width="120" height="140" as="geometry" />
        </mxCell>
        <mxCell id="-h3KbHeJ2DN9P56-N0Ar-118" value="Subnet" style="sketch=0;outlineConnect=0;gradientColor=none;html=1;whiteSpace=wrap;fontSize=12;fontStyle=0;shape=mxgraph.aws4.group;grIcon=mxgraph.aws4.group_subnet;strokeColor=#879196;fillColor=none;verticalAlign=top;align=left;spacingLeft=30;fontColor=#879196;dashed=0;" parent="-h3KbHeJ2DN9P56-N0Ar-114" vertex="1">
          <mxGeometry x="290" y="170" width="120" height="140" as="geometry" />
        </mxCell>
        <mxCell id="-h3KbHeJ2DN9P56-N0Ar-119" value="Subnet" style="sketch=0;outlineConnect=0;gradientColor=none;html=1;whiteSpace=wrap;fontSize=12;fontStyle=0;shape=mxgraph.aws4.group;grIcon=mxgraph.aws4.group_subnet;strokeColor=#879196;fillColor=none;verticalAlign=top;align=left;spacingLeft=30;fontColor=#879196;dashed=0;" parent="-h3KbHeJ2DN9P56-N0Ar-114" vertex="1">
          <mxGeometry x="490" y="170" width="120" height="140" as="geometry" />
        </mxCell>
        <mxCell id="-h3KbHeJ2DN9P56-N0Ar-120" value="10.0.0.0/16" style="text;html=1;align=center;verticalAlign=middle;whiteSpace=wrap;rounded=0;" parent="-h3KbHeJ2DN9P56-N0Ar-114" vertex="1">
          <mxGeometry x="110" y="90" width="60" height="30" as="geometry" />
        </mxCell>
        <mxCell id="-h3KbHeJ2DN9P56-N0Ar-121" value="10.0.5.0/24" style="text;html=1;align=center;verticalAlign=middle;whiteSpace=wrap;rounded=0;" parent="-h3KbHeJ2DN9P56-N0Ar-114" vertex="1">
          <mxGeometry x="120" y="190" width="60" height="30" as="geometry" />
        </mxCell>
        <mxCell id="-h3KbHeJ2DN9P56-N0Ar-122" value="10.0.6.0/24" style="text;html=1;align=center;verticalAlign=middle;whiteSpace=wrap;rounded=0;" parent="-h3KbHeJ2DN9P56-N0Ar-114" vertex="1">
          <mxGeometry x="320" y="190" width="60" height="30" as="geometry" />
        </mxCell>
        <mxCell id="-h3KbHeJ2DN9P56-N0Ar-123" value="10.0.7.0/24" style="text;html=1;align=center;verticalAlign=middle;whiteSpace=wrap;rounded=0;" parent="-h3KbHeJ2DN9P56-N0Ar-114" vertex="1">
          <mxGeometry x="520" y="190" width="60" height="30" as="geometry" />
        </mxCell>
        <mxCell id="-h3KbHeJ2DN9P56-N0Ar-124" value="AZ eu-central-1a" style="sketch=0;outlineConnect=0;gradientColor=none;html=1;whiteSpace=wrap;fontSize=12;fontStyle=0;shape=mxgraph.aws4.group;grIcon=mxgraph.aws4.group_availability_zone;strokeColor=#545B64;fillColor=none;verticalAlign=top;align=left;spacingLeft=30;fontColor=#545B64;dashed=1;" parent="-h3KbHeJ2DN9P56-N0Ar-114" vertex="1">
          <mxGeometry x="70" y="130" width="160" height="190" as="geometry" />
        </mxCell>
        <mxCell id="-h3KbHeJ2DN9P56-N0Ar-125" value="AZ eu-central-1b" style="sketch=0;outlineConnect=0;gradientColor=none;html=1;whiteSpace=wrap;fontSize=12;fontStyle=0;shape=mxgraph.aws4.group;grIcon=mxgraph.aws4.group_availability_zone;strokeColor=#545B64;fillColor=none;verticalAlign=top;align=left;spacingLeft=30;fontColor=#545B64;dashed=1;" parent="-h3KbHeJ2DN9P56-N0Ar-114" vertex="1">
          <mxGeometry x="270" y="130" width="160" height="190" as="geometry" />
        </mxCell>
        <mxCell id="-h3KbHeJ2DN9P56-N0Ar-126" value="AZ eu-central-1b" style="sketch=0;outlineConnect=0;gradientColor=none;html=1;whiteSpace=wrap;fontSize=12;fontStyle=0;shape=mxgraph.aws4.group;grIcon=mxgraph.aws4.group_availability_zone;strokeColor=#545B64;fillColor=none;verticalAlign=top;align=left;spacingLeft=30;fontColor=#545B64;dashed=1;" parent="-h3KbHeJ2DN9P56-N0Ar-114" vertex="1">
          <mxGeometry x="470" y="130" width="160" height="190" as="geometry" />
        </mxCell>
        <mxCell id="-h3KbHeJ2DN9P56-N0Ar-127" value="" style="outlineConnect=0;dashed=0;verticalLabelPosition=bottom;verticalAlign=top;align=center;html=1;shape=mxgraph.aws3.internet_gateway;fillColor=#F58534;gradientColor=none;" parent="-h3KbHeJ2DN9P56-N0Ar-114" vertex="1">
          <mxGeometry x="327" y="30" width="46" height="48" as="geometry" />
        </mxCell>
        <mxCell id="-h3KbHeJ2DN9P56-N0Ar-128" value="Internet Gateway" style="text;html=1;align=center;verticalAlign=middle;whiteSpace=wrap;rounded=0;" parent="-h3KbHeJ2DN9P56-N0Ar-114" vertex="1">
          <mxGeometry x="320" width="60" height="30" as="geometry" />
        </mxCell>
        <mxCell id="-h3KbHeJ2DN9P56-N0Ar-130" value="" style="group" parent="-h3KbHeJ2DN9P56-N0Ar-131" vertex="1" connectable="0">
          <mxGeometry x="400.00000000000006" width="60" height="78" as="geometry" />
        </mxCell>
        <mxCell id="-h3KbHeJ2DN9P56-N0Ar-42" value="" style="outlineConnect=0;dashed=0;verticalLabelPosition=bottom;verticalAlign=top;align=center;html=1;shape=mxgraph.aws3.route_table;fillColor=#F58536;gradientColor=none;" parent="-h3KbHeJ2DN9P56-N0Ar-130" vertex="1">
          <mxGeometry x="3.910000000000025" y="30" width="52.17" height="48" as="geometry" />
        </mxCell>
        <mxCell id="-h3KbHeJ2DN9P56-N0Ar-43" value="Route Table" style="text;html=1;align=center;verticalAlign=middle;whiteSpace=wrap;rounded=0;" parent="-h3KbHeJ2DN9P56-N0Ar-130" vertex="1">
          <mxGeometry width="60" height="30" as="geometry" />
        </mxCell>
        <mxCell id="-h3KbHeJ2DN9P56-N0Ar-132" value="" style="group" parent="1" vertex="1" connectable="0">
          <mxGeometry x="89.99999999999994" y="1200" width="700" height="390" as="geometry" />
        </mxCell>
        <mxCell id="-h3KbHeJ2DN9P56-N0Ar-133" value="Region: eu-central-1" style="sketch=0;outlineConnect=0;gradientColor=none;html=1;whiteSpace=wrap;fontSize=12;fontStyle=0;shape=mxgraph.aws4.group;grIcon=mxgraph.aws4.group_region;strokeColor=#879196;fillColor=none;verticalAlign=top;align=left;spacingLeft=30;fontColor=#879196;dashed=1;" parent="-h3KbHeJ2DN9P56-N0Ar-132" vertex="1">
          <mxGeometry y="60" width="700" height="330" as="geometry" />
        </mxCell>
        <mxCell id="-h3KbHeJ2DN9P56-N0Ar-134" value="VPC" style="sketch=0;outlineConnect=0;gradientColor=none;html=1;whiteSpace=wrap;fontSize=12;fontStyle=0;shape=mxgraph.aws4.group;grIcon=mxgraph.aws4.group_vpc;strokeColor=#879196;fillColor=none;verticalAlign=top;align=left;spacingLeft=30;fontColor=#879196;dashed=0;" parent="-h3KbHeJ2DN9P56-N0Ar-132" vertex="1">
          <mxGeometry x="30" y="90" width="640" height="270" as="geometry" />
        </mxCell>
        <mxCell id="-h3KbHeJ2DN9P56-N0Ar-135" value="Subnet" style="sketch=0;outlineConnect=0;gradientColor=none;html=1;whiteSpace=wrap;fontSize=12;fontStyle=0;shape=mxgraph.aws4.group;grIcon=mxgraph.aws4.group_subnet;strokeColor=#879196;fillColor=none;verticalAlign=top;align=left;spacingLeft=30;fontColor=#879196;dashed=0;" parent="-h3KbHeJ2DN9P56-N0Ar-132" vertex="1">
          <mxGeometry x="90" y="170" width="120" height="140" as="geometry" />
        </mxCell>
        <mxCell id="-h3KbHeJ2DN9P56-N0Ar-136" value="Subnet" style="sketch=0;outlineConnect=0;gradientColor=none;html=1;whiteSpace=wrap;fontSize=12;fontStyle=0;shape=mxgraph.aws4.group;grIcon=mxgraph.aws4.group_subnet;strokeColor=#879196;fillColor=none;verticalAlign=top;align=left;spacingLeft=30;fontColor=#879196;dashed=0;" parent="-h3KbHeJ2DN9P56-N0Ar-132" vertex="1">
          <mxGeometry x="290" y="170" width="120" height="140" as="geometry" />
        </mxCell>
        <mxCell id="-h3KbHeJ2DN9P56-N0Ar-137" value="Subnet" style="sketch=0;outlineConnect=0;gradientColor=none;html=1;whiteSpace=wrap;fontSize=12;fontStyle=0;shape=mxgraph.aws4.group;grIcon=mxgraph.aws4.group_subnet;strokeColor=#879196;fillColor=none;verticalAlign=top;align=left;spacingLeft=30;fontColor=#879196;dashed=0;" parent="-h3KbHeJ2DN9P56-N0Ar-132" vertex="1">
          <mxGeometry x="490" y="170" width="120" height="140" as="geometry" />
        </mxCell>
        <mxCell id="-h3KbHeJ2DN9P56-N0Ar-138" value="10.0.0.0/16" style="text;html=1;align=center;verticalAlign=middle;whiteSpace=wrap;rounded=0;" parent="-h3KbHeJ2DN9P56-N0Ar-132" vertex="1">
          <mxGeometry x="110" y="90" width="60" height="30" as="geometry" />
        </mxCell>
        <mxCell id="-h3KbHeJ2DN9P56-N0Ar-139" value="10.0.5.0/24" style="text;html=1;align=center;verticalAlign=middle;whiteSpace=wrap;rounded=0;" parent="-h3KbHeJ2DN9P56-N0Ar-132" vertex="1">
          <mxGeometry x="120" y="190" width="60" height="30" as="geometry" />
        </mxCell>
        <mxCell id="-h3KbHeJ2DN9P56-N0Ar-140" value="10.0.6.0/24" style="text;html=1;align=center;verticalAlign=middle;whiteSpace=wrap;rounded=0;" parent="-h3KbHeJ2DN9P56-N0Ar-132" vertex="1">
          <mxGeometry x="320" y="190" width="60" height="30" as="geometry" />
        </mxCell>
        <mxCell id="-h3KbHeJ2DN9P56-N0Ar-141" value="10.0.7.0/24" style="text;html=1;align=center;verticalAlign=middle;whiteSpace=wrap;rounded=0;" parent="-h3KbHeJ2DN9P56-N0Ar-132" vertex="1">
          <mxGeometry x="520" y="190" width="60" height="30" as="geometry" />
        </mxCell>
        <mxCell id="-h3KbHeJ2DN9P56-N0Ar-142" value="AZ eu-central-1a" style="sketch=0;outlineConnect=0;gradientColor=none;html=1;whiteSpace=wrap;fontSize=12;fontStyle=0;shape=mxgraph.aws4.group;grIcon=mxgraph.aws4.group_availability_zone;strokeColor=#545B64;fillColor=none;verticalAlign=top;align=left;spacingLeft=30;fontColor=#545B64;dashed=1;" parent="-h3KbHeJ2DN9P56-N0Ar-132" vertex="1">
          <mxGeometry x="70" y="130" width="160" height="190" as="geometry" />
        </mxCell>
        <mxCell id="-h3KbHeJ2DN9P56-N0Ar-143" value="AZ eu-central-1b" style="sketch=0;outlineConnect=0;gradientColor=none;html=1;whiteSpace=wrap;fontSize=12;fontStyle=0;shape=mxgraph.aws4.group;grIcon=mxgraph.aws4.group_availability_zone;strokeColor=#545B64;fillColor=none;verticalAlign=top;align=left;spacingLeft=30;fontColor=#545B64;dashed=1;" parent="-h3KbHeJ2DN9P56-N0Ar-132" vertex="1">
          <mxGeometry x="270" y="130" width="160" height="190" as="geometry" />
        </mxCell>
        <mxCell id="-h3KbHeJ2DN9P56-N0Ar-144" value="AZ eu-central-1b" style="sketch=0;outlineConnect=0;gradientColor=none;html=1;whiteSpace=wrap;fontSize=12;fontStyle=0;shape=mxgraph.aws4.group;grIcon=mxgraph.aws4.group_availability_zone;strokeColor=#545B64;fillColor=none;verticalAlign=top;align=left;spacingLeft=30;fontColor=#545B64;dashed=1;" parent="-h3KbHeJ2DN9P56-N0Ar-132" vertex="1">
          <mxGeometry x="470" y="130" width="160" height="190" as="geometry" />
        </mxCell>
        <mxCell id="-h3KbHeJ2DN9P56-N0Ar-145" value="" style="outlineConnect=0;dashed=0;verticalLabelPosition=bottom;verticalAlign=top;align=center;html=1;shape=mxgraph.aws3.internet_gateway;fillColor=#F58534;gradientColor=none;" parent="-h3KbHeJ2DN9P56-N0Ar-132" vertex="1">
          <mxGeometry x="327" y="30" width="46" height="48" as="geometry" />
        </mxCell>
        <mxCell id="-h3KbHeJ2DN9P56-N0Ar-146" value="Internet Gateway" style="text;html=1;align=center;verticalAlign=middle;whiteSpace=wrap;rounded=0;" parent="-h3KbHeJ2DN9P56-N0Ar-132" vertex="1">
          <mxGeometry x="320" width="60" height="30" as="geometry" />
        </mxCell>
        <mxCell id="-h3KbHeJ2DN9P56-N0Ar-162" value="" style="group" parent="-h3KbHeJ2DN9P56-N0Ar-132" vertex="1" connectable="0">
          <mxGeometry x="110.00000000000006" y="230" width="60" height="68" as="geometry" />
        </mxCell>
        <mxCell id="-h3KbHeJ2DN9P56-N0Ar-163" value="" style="sketch=0;points=[[0,0,0],[0.25,0,0],[0.5,0,0],[0.75,0,0],[1,0,0],[0,1,0],[0.25,1,0],[0.5,1,0],[0.75,1,0],[1,1,0],[0,0.25,0],[0,0.5,0],[0,0.75,0],[1,0.25,0],[1,0.5,0],[1,0.75,0]];outlineConnect=0;fontColor=#232F3E;fillColor=#ED7100;strokeColor=#ffffff;dashed=0;verticalLabelPosition=bottom;verticalAlign=top;align=center;html=1;fontSize=12;fontStyle=0;aspect=fixed;shape=mxgraph.aws4.resourceIcon;resIcon=mxgraph.aws4.ec2;" parent="-h3KbHeJ2DN9P56-N0Ar-162" vertex="1">
          <mxGeometry x="11" width="38" height="38" as="geometry" />
        </mxCell>
        <mxCell id="-h3KbHeJ2DN9P56-N0Ar-164" value="InstanceA" style="text;html=1;align=center;verticalAlign=middle;whiteSpace=wrap;rounded=0;" parent="-h3KbHeJ2DN9P56-N0Ar-162" vertex="1">
          <mxGeometry y="38" width="60" height="30" as="geometry" />
        </mxCell>
        <mxCell id="-h3KbHeJ2DN9P56-N0Ar-166" value="" style="group" parent="-h3KbHeJ2DN9P56-N0Ar-132" vertex="1" connectable="0">
          <mxGeometry x="330.00000000000006" y="230" width="60" height="68" as="geometry" />
        </mxCell>
        <mxCell id="-h3KbHeJ2DN9P56-N0Ar-167" value="" style="sketch=0;points=[[0,0,0],[0.25,0,0],[0.5,0,0],[0.75,0,0],[1,0,0],[0,1,0],[0.25,1,0],[0.5,1,0],[0.75,1,0],[1,1,0],[0,0.25,0],[0,0.5,0],[0,0.75,0],[1,0.25,0],[1,0.5,0],[1,0.75,0]];outlineConnect=0;fontColor=#232F3E;fillColor=#ED7100;strokeColor=#ffffff;dashed=0;verticalLabelPosition=bottom;verticalAlign=top;align=center;html=1;fontSize=12;fontStyle=0;aspect=fixed;shape=mxgraph.aws4.resourceIcon;resIcon=mxgraph.aws4.ec2;" parent="-h3KbHeJ2DN9P56-N0Ar-166" vertex="1">
          <mxGeometry x="11" width="38" height="38" as="geometry" />
        </mxCell>
        <mxCell id="-h3KbHeJ2DN9P56-N0Ar-168" value="InstanceB" style="text;html=1;align=center;verticalAlign=middle;whiteSpace=wrap;rounded=0;" parent="-h3KbHeJ2DN9P56-N0Ar-166" vertex="1">
          <mxGeometry y="38" width="60" height="30" as="geometry" />
        </mxCell>
        <mxCell id="-h3KbHeJ2DN9P56-N0Ar-147" value="" style="group" parent="1" vertex="1" connectable="0">
          <mxGeometry x="490" y="1200" width="60" height="78" as="geometry" />
        </mxCell>
        <mxCell id="-h3KbHeJ2DN9P56-N0Ar-148" value="" style="outlineConnect=0;dashed=0;verticalLabelPosition=bottom;verticalAlign=top;align=center;html=1;shape=mxgraph.aws3.route_table;fillColor=#F58536;gradientColor=none;" parent="-h3KbHeJ2DN9P56-N0Ar-147" vertex="1">
          <mxGeometry x="3.910000000000025" y="30" width="52.17" height="48" as="geometry" />
        </mxCell>
        <mxCell id="-h3KbHeJ2DN9P56-N0Ar-149" value="Route Table" style="text;html=1;align=center;verticalAlign=middle;whiteSpace=wrap;rounded=0;" parent="-h3KbHeJ2DN9P56-N0Ar-147" vertex="1">
          <mxGeometry width="60" height="30" as="geometry" />
        </mxCell>
        <mxCell id="-h3KbHeJ2DN9P56-N0Ar-151" value="AZ eu-central-1b" style="sketch=0;outlineConnect=0;gradientColor=none;html=1;whiteSpace=wrap;fontSize=12;fontStyle=0;shape=mxgraph.aws4.group;grIcon=mxgraph.aws4.group_availability_zone;strokeColor=#545B64;fillColor=none;verticalAlign=top;align=left;spacingLeft=30;fontColor=#545B64;dashed=1;" parent="1" vertex="1">
          <mxGeometry x="360" y="1730" width="160" height="400" as="geometry" />
        </mxCell>
        <mxCell id="-h3KbHeJ2DN9P56-N0Ar-152" value="AZ eu-central-1b" style="sketch=0;outlineConnect=0;gradientColor=none;html=1;whiteSpace=wrap;fontSize=12;fontStyle=0;shape=mxgraph.aws4.group;grIcon=mxgraph.aws4.group_availability_zone;strokeColor=#545B64;fillColor=none;verticalAlign=top;align=left;spacingLeft=30;fontColor=#545B64;dashed=1;" parent="1" vertex="1">
          <mxGeometry x="560" y="1730" width="170" height="400" as="geometry" />
        </mxCell>
        <mxCell id="-h3KbHeJ2DN9P56-N0Ar-153" value="10.0.11&lt;span style=&quot;background-color: initial;&quot;&gt;.0/24&lt;/span&gt;" style="text;html=1;align=center;verticalAlign=middle;whiteSpace=wrap;rounded=0;" parent="1" vertex="1">
          <mxGeometry x="410" y="2000" width="60" height="30" as="geometry" />
        </mxCell>
        <mxCell id="-h3KbHeJ2DN9P56-N0Ar-154" value="10.0.12&lt;span style=&quot;background-color: initial;&quot;&gt;.0/24&lt;/span&gt;" style="text;html=1;align=center;verticalAlign=middle;whiteSpace=wrap;rounded=0;" parent="1" vertex="1">
          <mxGeometry x="615" y="2000" width="60" height="30" as="geometry" />
        </mxCell>
        <mxCell id="-h3KbHeJ2DN9P56-N0Ar-155" value="" style="group" parent="1" vertex="1" connectable="0">
          <mxGeometry x="250" y="1852" width="60" height="68" as="geometry" />
        </mxCell>
        <mxCell id="-h3KbHeJ2DN9P56-N0Ar-161" value="" style="group" parent="-h3KbHeJ2DN9P56-N0Ar-155" vertex="1" connectable="0">
          <mxGeometry width="60" height="68" as="geometry" />
        </mxCell>
        <mxCell id="-h3KbHeJ2DN9P56-N0Ar-79" value="" style="sketch=0;points=[[0,0,0],[0.25,0,0],[0.5,0,0],[0.75,0,0],[1,0,0],[0,1,0],[0.25,1,0],[0.5,1,0],[0.75,1,0],[1,1,0],[0,0.25,0],[0,0.5,0],[0,0.75,0],[1,0.25,0],[1,0.5,0],[1,0.75,0]];outlineConnect=0;fontColor=#232F3E;fillColor=#ED7100;strokeColor=#ffffff;dashed=0;verticalLabelPosition=bottom;verticalAlign=top;align=center;html=1;fontSize=12;fontStyle=0;aspect=fixed;shape=mxgraph.aws4.resourceIcon;resIcon=mxgraph.aws4.ec2;" parent="-h3KbHeJ2DN9P56-N0Ar-161" vertex="1">
          <mxGeometry x="11" width="38" height="38" as="geometry" />
        </mxCell>
        <mxCell id="-h3KbHeJ2DN9P56-N0Ar-81" value="InstanceA" style="text;html=1;align=center;verticalAlign=middle;whiteSpace=wrap;rounded=0;" parent="-h3KbHeJ2DN9P56-N0Ar-161" vertex="1">
          <mxGeometry y="38" width="60" height="30" as="geometry" />
        </mxCell>
        <mxCell id="-h3KbHeJ2DN9P56-N0Ar-157" value="" style="group" parent="1" vertex="1" connectable="0">
          <mxGeometry x="410" y="2032" width="60" height="68" as="geometry" />
        </mxCell>
        <mxCell id="-h3KbHeJ2DN9P56-N0Ar-158" value="" style="sketch=0;points=[[0,0,0],[0.25,0,0],[0.5,0,0],[0.75,0,0],[1,0,0],[0,1,0],[0.25,1,0],[0.5,1,0],[0.75,1,0],[1,1,0],[0,0.25,0],[0,0.5,0],[0,0.75,0],[1,0.25,0],[1,0.5,0],[1,0.75,0]];outlineConnect=0;fontColor=#232F3E;fillColor=#ED7100;strokeColor=#ffffff;dashed=0;verticalLabelPosition=bottom;verticalAlign=top;align=center;html=1;fontSize=12;fontStyle=0;aspect=fixed;shape=mxgraph.aws4.resourceIcon;resIcon=mxgraph.aws4.ec2;" parent="-h3KbHeJ2DN9P56-N0Ar-157" vertex="1">
          <mxGeometry x="11" width="38" height="38" as="geometry" />
        </mxCell>
        <mxCell id="-h3KbHeJ2DN9P56-N0Ar-159" value="PrivateInstanceB" style="text;html=1;align=center;verticalAlign=middle;whiteSpace=wrap;rounded=0;" parent="-h3KbHeJ2DN9P56-N0Ar-157" vertex="1">
          <mxGeometry y="38" width="60" height="30" as="geometry" />
        </mxCell>
        <mxCell id="-h3KbHeJ2DN9P56-N0Ar-173" value="" style="group" parent="1" vertex="1" connectable="0">
          <mxGeometry x="507.5" y="1640" width="60" height="78" as="geometry" />
        </mxCell>
        <mxCell id="-h3KbHeJ2DN9P56-N0Ar-77" value="" style="outlineConnect=0;dashed=0;verticalLabelPosition=bottom;verticalAlign=top;align=center;html=1;shape=mxgraph.aws3.route_table;fillColor=#F58536;gradientColor=none;" parent="-h3KbHeJ2DN9P56-N0Ar-173" vertex="1">
          <mxGeometry x="3.910000000000082" y="30" width="52.17" height="48" as="geometry" />
        </mxCell>
        <mxCell id="-h3KbHeJ2DN9P56-N0Ar-78" value="Route Table" style="text;html=1;align=center;verticalAlign=middle;whiteSpace=wrap;rounded=0;" parent="-h3KbHeJ2DN9P56-N0Ar-173" vertex="1">
          <mxGeometry width="60" height="30" as="geometry" />
        </mxCell>
        <mxCell id="-h3KbHeJ2DN9P56-N0Ar-174" value="" style="group" parent="1" vertex="1" connectable="0">
          <mxGeometry x="290" y="1630" width="60" height="78" as="geometry" />
        </mxCell>
        <mxCell id="-h3KbHeJ2DN9P56-N0Ar-175" value="" style="outlineConnect=0;dashed=0;verticalLabelPosition=bottom;verticalAlign=top;align=center;html=1;shape=mxgraph.aws3.route_table;fillColor=#F58536;gradientColor=none;" parent="-h3KbHeJ2DN9P56-N0Ar-174" vertex="1">
          <mxGeometry x="3.910000000000082" y="30" width="52.17" height="48" as="geometry" />
        </mxCell>
        <mxCell id="-h3KbHeJ2DN9P56-N0Ar-176" value="Private Route Table&lt;div&gt;&lt;br&gt;&lt;/div&gt;" style="text;html=1;align=center;verticalAlign=middle;whiteSpace=wrap;rounded=0;" parent="-h3KbHeJ2DN9P56-N0Ar-174" vertex="1">
          <mxGeometry width="60" height="30" as="geometry" />
        </mxCell>
        <mxCell id="-h3KbHeJ2DN9P56-N0Ar-178" value="" style="outlineConnect=0;dashed=0;verticalLabelPosition=bottom;verticalAlign=top;align=center;html=1;shape=mxgraph.aws3.vpc_nat_gateway;fillColor=#F58536;gradientColor=none;" parent="1" vertex="1">
          <mxGeometry x="189.58" y="1852" width="30.66" height="32" as="geometry" />
        </mxCell>
        <mxCell id="-h3KbHeJ2DN9P56-N0Ar-179" value="NAT Gateway" style="text;html=1;align=center;verticalAlign=middle;whiteSpace=wrap;rounded=0;" parent="1" vertex="1">
          <mxGeometry x="174.91000000000003" y="1890" width="60" height="30" as="geometry" />
        </mxCell>
        <mxCell id="5tqUznQ__1eCKwcScqHb-8" style="edgeStyle=orthogonalEdgeStyle;rounded=0;orthogonalLoop=1;jettySize=auto;html=1;entryX=0;entryY=0.5;entryDx=0;entryDy=0;entryPerimeter=0;" edge="1" parent="1" source="-h3KbHeJ2DN9P56-N0Ar-79" target="-h3KbHeJ2DN9P56-N0Ar-158">
          <mxGeometry relative="1" as="geometry" />
        </mxCell>
      </root>
    </mxGraphModel>
  </diagram>
</mxfile>
